<svg xmlns="http://www.w3.org/2000/svg" version="1.1" xmlns:xlink="http://www.w3.org/1999/xlink" xmlns:svgjs="http://svgjs.dev/svgjs" width="1000" height="282" viewBox="0 0 1000 282"><g transform="matrix(1,0,0,1,-0.6056624445730563,-0.09230323410974961)"><svg viewBox="0 0 396 112" data-background-color="#fdfcfc" preserveAspectRatio="xMidYMid meet" height="282" width="1000" xmlns="http://www.w3.org/2000/svg" xmlns:xlink="http://www.w3.org/1999/xlink"><defs></defs><g id="tight-bounds" transform="matrix(1,0,0,1,0.2401576719491061,0.036659440497487594)"><svg viewBox="0 0 395.5199999999999 111.92668111900501" height="111.92668111900501" width="395.5199999999999"><g><svg viewBox="0 0 660.6395681654358 186.95184638109302" height="111.92668111900501" width="395.5199999999999"><g transform="matrix(1,0,0,1,265.11956816543574,0)"><svg viewBox="0 0 395.52 186.95184638109302" height="186.95184638109302" width="395.52"><g><svg viewBox="0 0 395.52 186.95184638109302" height="186.95184638109302" width="395.52"><g><svg viewBox="0 0 395.52 186.95184638109302" height="186.95184638109302" width="395.52"><g transform="matrix(1,0,0,1,0,0)"><svg width="395.52" viewBox="1.4000000000000017 -35.50000000000001 204.35 84" height="186.95184638109302" data-palette-color="#f6f6f6"><svg></svg><svg></svg><g class="undefined-text-0" data-fill-palette-color="primary" id="text-0"><path d="M17.4 0.5v0c-3.1 0-5.723-0.543-7.87-1.63-2.153-1.08-3.797-2.63-4.93-4.65-1.133-2.013-1.767-4.437-1.9-7.27v0c-0.033-1.367-0.05-2.833-0.05-4.4 0-1.567 0.017-3.067 0.05-4.5v0c0.133-2.8 0.777-5.217 1.93-7.25 1.147-2.033 2.797-3.593 4.95-4.68 2.147-1.08 4.753-1.62 7.82-1.62v0c2.267 0 4.3 0.3 6.1 0.9 1.8 0.6 3.333 1.423 4.6 2.47 1.267 1.053 2.25 2.28 2.95 3.68 0.7 1.4 1.067 2.917 1.1 4.55v0c0.033 0.3-0.057 0.55-0.27 0.75-0.22 0.2-0.48 0.3-0.78 0.3v0h-4.75c-0.367 0-0.667-0.093-0.9-0.28-0.233-0.18-0.4-0.487-0.5-0.92v0c-0.533-2.2-1.45-3.7-2.75-4.5-1.3-0.8-2.917-1.2-4.85-1.2v0c-2.233 0-4.017 0.623-5.35 1.87-1.333 1.253-2.05 3.313-2.15 6.18v0c-0.1 2.733-0.1 5.533 0 8.4v0c0.1 2.867 0.817 4.923 2.15 6.17 1.333 1.253 3.117 1.88 5.35 1.88v0c1.933 0 3.56-0.41 4.88-1.23 1.313-0.813 2.22-2.303 2.72-4.47v0c0.1-0.467 0.267-0.783 0.5-0.95 0.233-0.167 0.533-0.25 0.9-0.25v0h4.75c0.3 0 0.56 0.1 0.78 0.3 0.213 0.2 0.303 0.45 0.27 0.75v0c-0.033 1.633-0.4 3.15-1.1 4.55-0.7 1.4-1.683 2.623-2.95 3.67-1.267 1.053-2.8 1.88-4.6 2.48-1.8 0.6-3.833 0.9-6.1 0.9zM43.2 0h-4.45c-0.333 0-0.617-0.117-0.85-0.35-0.233-0.233-0.35-0.517-0.35-0.85v0-33.1c0-0.333 0.117-0.617 0.35-0.85 0.233-0.233 0.517-0.35 0.85-0.35v0h4.45c0.367 0 0.66 0.117 0.88 0.35 0.213 0.233 0.32 0.517 0.32 0.85v0 11.4c0.9-1.067 2-1.933 3.3-2.6 1.3-0.667 2.9-1 4.8-1v0c2.033 0 3.81 0.457 5.33 1.37 1.513 0.92 2.687 2.213 3.52 3.88 0.833 1.667 1.25 3.667 1.25 6v0 14.05c0 0.333-0.117 0.617-0.35 0.85-0.233 0.233-0.517 0.35-0.85 0.35v0h-4.5c-0.333 0-0.617-0.117-0.85-0.35-0.233-0.233-0.35-0.517-0.35-0.85v0-13.75c0-1.933-0.473-3.45-1.42-4.55-0.953-1.1-2.33-1.65-4.13-1.65v0c-1.733 0-3.123 0.55-4.17 1.65-1.053 1.1-1.58 2.617-1.58 4.55v0 13.75c0 0.333-0.107 0.617-0.32 0.85-0.22 0.233-0.513 0.35-0.88 0.35zM80.45 0.5v0c-2.667 0-4.907-0.467-6.72-1.4-1.82-0.933-3.203-2.25-4.15-3.95-0.953-1.7-1.497-3.683-1.63-5.95v0c-0.033-0.6-0.05-1.333-0.05-2.2 0-0.867 0.017-1.6 0.05-2.2v0c0.133-2.3 0.693-4.293 1.68-5.98 0.98-1.68 2.38-2.987 4.2-3.92 1.813-0.933 4.02-1.4 6.62-1.4v0c2.6 0 4.81 0.467 6.63 1.4 1.813 0.933 3.213 2.24 4.2 3.92 0.98 1.687 1.537 3.68 1.67 5.98v0c0.033 0.6 0.05 1.333 0.05 2.2 0 0.867-0.017 1.6-0.05 2.2v0c-0.133 2.267-0.673 4.25-1.62 5.95-0.953 1.7-2.337 3.017-4.15 3.95-1.82 0.933-4.063 1.4-6.73 1.4zM80.45-4.45v0c1.767 0 3.133-0.56 4.1-1.68 0.967-1.113 1.5-2.753 1.6-4.92v0c0.033-0.5 0.05-1.15 0.05-1.95 0-0.8-0.017-1.45-0.05-1.95v0c-0.1-2.167-0.633-3.81-1.6-4.93-0.967-1.113-2.333-1.67-4.1-1.67v0c-1.767 0-3.133 0.557-4.1 1.67-0.967 1.12-1.5 2.763-1.6 4.93v0c-0.033 0.5-0.05 1.15-0.05 1.95 0 0.8 0.017 1.45 0.05 1.95v0c0.1 2.167 0.633 3.807 1.6 4.92 0.967 1.12 2.333 1.68 4.1 1.68zM104.05 9.5h-4.25c-0.333 0-0.617-0.117-0.85-0.35-0.233-0.233-0.35-0.517-0.35-0.85v0-33.1c0-0.333 0.117-0.617 0.35-0.85 0.233-0.233 0.517-0.35 0.85-0.35v0h3.95c0.367 0 0.66 0.117 0.88 0.35 0.213 0.233 0.32 0.517 0.32 0.85v0 2c0.8-1.067 1.85-1.95 3.15-2.65 1.3-0.7 2.917-1.05 4.85-1.05v0c1.767 0 3.3 0.283 4.6 0.85 1.3 0.567 2.383 1.373 3.25 2.42 0.867 1.053 1.533 2.297 2 3.73 0.467 1.433 0.733 3.017 0.8 4.75v0c0.033 0.567 0.05 1.15 0.05 1.75 0 0.6-0.017 1.2-0.05 1.8v0c-0.033 1.667-0.283 3.207-0.75 4.62-0.467 1.42-1.14 2.653-2.02 3.7-0.887 1.053-1.98 1.88-3.28 2.48-1.3 0.6-2.833 0.9-4.6 0.9v0c-1.8 0-3.333-0.327-4.6-0.98-1.267-0.647-2.3-1.503-3.1-2.57v0 11.35c0 0.333-0.11 0.617-0.33 0.85-0.213 0.233-0.503 0.35-0.87 0.35zM111.1-4.85v0c1.433 0 2.55-0.31 3.35-0.93 0.8-0.613 1.383-1.42 1.75-2.42 0.367-1 0.583-2.1 0.65-3.3v0c0.033-1 0.033-2 0-3v0c-0.067-1.2-0.283-2.3-0.65-3.3-0.367-1-0.95-1.81-1.75-2.43-0.8-0.613-1.917-0.92-3.35-0.92v0c-1.367 0-2.473 0.317-3.32 0.95-0.853 0.633-1.473 1.44-1.86 2.42-0.38 0.987-0.603 1.997-0.67 3.03v0c-0.033 0.6-0.05 1.233-0.05 1.9 0 0.667 0.017 1.317 0.05 1.95v0c0.033 1 0.267 1.957 0.7 2.87 0.433 0.92 1.067 1.68 1.9 2.28 0.833 0.6 1.917 0.9 3.25 0.9zM134.75 9.5h-4.25c-0.333 0-0.617-0.117-0.85-0.35-0.233-0.233-0.35-0.517-0.35-0.85v0-33.1c0-0.333 0.117-0.617 0.35-0.85 0.233-0.233 0.517-0.35 0.85-0.35v0h3.95c0.367 0 0.657 0.117 0.87 0.35 0.22 0.233 0.33 0.517 0.33 0.85v0 2c0.8-1.067 1.85-1.95 3.15-2.65 1.3-0.7 2.917-1.05 4.85-1.05v0c1.767 0 3.3 0.283 4.6 0.85 1.3 0.567 2.383 1.373 3.25 2.42 0.867 1.053 1.533 2.297 2 3.73 0.467 1.433 0.733 3.017 0.8 4.75v0c0.033 0.567 0.05 1.15 0.05 1.75 0 0.6-0.017 1.2-0.05 1.8v0c-0.033 1.667-0.283 3.207-0.75 4.62-0.467 1.42-1.14 2.653-2.02 3.7-0.887 1.053-1.98 1.88-3.28 2.48-1.3 0.6-2.833 0.9-4.6 0.9v0c-1.8 0-3.333-0.327-4.6-0.98-1.267-0.647-2.3-1.503-3.1-2.57v0 11.35c0 0.333-0.107 0.617-0.32 0.85-0.22 0.233-0.513 0.35-0.88 0.35zM141.8-4.85v0c1.433 0 2.55-0.31 3.35-0.93 0.8-0.613 1.383-1.42 1.75-2.42 0.367-1 0.583-2.1 0.65-3.3v0c0.033-1 0.033-2 0-3v0c-0.067-1.2-0.283-2.3-0.65-3.3-0.367-1-0.95-1.81-1.75-2.43-0.8-0.613-1.917-0.92-3.35-0.92v0c-1.367 0-2.477 0.317-3.33 0.95-0.847 0.633-1.46 1.44-1.84 2.42-0.387 0.987-0.613 1.997-0.68 3.03v0c-0.033 0.6-0.05 1.233-0.05 1.9 0 0.667 0.017 1.317 0.05 1.95v0c0.033 1 0.267 1.957 0.7 2.87 0.433 0.92 1.067 1.68 1.9 2.28 0.833 0.6 1.917 0.9 3.25 0.9zM171.15 0.5v0c-3.7 0-6.633-1.067-8.8-3.2-2.167-2.133-3.333-5.167-3.5-9.1v0c-0.033-0.333-0.05-0.76-0.05-1.28 0-0.513 0.017-0.92 0.05-1.22v0c0.133-2.533 0.71-4.71 1.73-6.53 1.013-1.813 2.42-3.213 4.22-4.2 1.8-0.98 3.917-1.47 6.35-1.47v0c2.7 0 4.967 0.557 6.8 1.67 1.833 1.12 3.217 2.67 4.15 4.65 0.933 1.987 1.4 4.28 1.4 6.88v0 1.05c0 0.333-0.117 0.617-0.35 0.85-0.233 0.233-0.533 0.35-0.9 0.35v0h-16.6c0 0 0 0.05 0 0.15 0 0.1 0 0.183 0 0.25v0c0.033 1.167 0.26 2.24 0.68 3.22 0.413 0.987 1.03 1.78 1.85 2.38 0.813 0.6 1.787 0.9 2.92 0.9v0c0.933 0 1.717-0.143 2.35-0.43 0.633-0.28 1.15-0.603 1.55-0.97 0.4-0.367 0.683-0.667 0.85-0.9v0c0.3-0.4 0.543-0.643 0.73-0.73 0.18-0.08 0.453-0.12 0.82-0.12v0h4.3c0.333 0 0.61 0.1 0.83 0.3 0.213 0.2 0.303 0.45 0.27 0.75v0c-0.033 0.533-0.307 1.183-0.82 1.95-0.52 0.767-1.263 1.517-2.23 2.25-0.967 0.733-2.173 1.34-3.62 1.82-1.453 0.487-3.113 0.73-4.98 0.73zM165.65-15.4v0.15h11.05v-0.15c0-1.3-0.217-2.44-0.65-3.42-0.433-0.987-1.067-1.757-1.9-2.31-0.833-0.547-1.833-0.82-3-0.82v0c-1.167 0-2.167 0.273-3 0.82-0.833 0.553-1.457 1.323-1.87 2.31-0.42 0.98-0.63 2.12-0.63 3.42zM194.35 0h-4.35c-0.333 0-0.617-0.117-0.85-0.35-0.233-0.233-0.35-0.517-0.35-0.85v0-23.55c0-0.367 0.117-0.667 0.35-0.9 0.233-0.233 0.517-0.35 0.85-0.35v0h4.05c0.333 0 0.627 0.117 0.88 0.35 0.247 0.233 0.37 0.533 0.37 0.9v0 2.05c0.767-1.067 1.76-1.883 2.98-2.45 1.213-0.567 2.62-0.85 4.22-0.85v0h2.05c0.367 0 0.66 0.117 0.88 0.35 0.213 0.233 0.32 0.517 0.32 0.85v0 3.6c0 0.333-0.107 0.617-0.32 0.85-0.22 0.233-0.513 0.35-0.88 0.35v0h-3.9c-1.6 0-2.84 0.44-3.72 1.32-0.887 0.887-1.33 2.13-1.33 3.73v0 13.75c0 0.333-0.117 0.617-0.35 0.85-0.233 0.233-0.533 0.35-0.9 0.35z" data-fill-palette-color="primary" fill="#f6f6f6" opacity="1"></path><path d="M19.6 48h-5.5c-0.533 0-0.95-0.133-1.25-0.4-0.3-0.267-0.517-0.6-0.65-1v0l-10.7-32.1c-0.067-0.167-0.1-0.317-0.1-0.45v0c0-0.3 0.1-0.55 0.3-0.75 0.2-0.2 0.45-0.3 0.75-0.3v0h4.4c0.467 0 0.827 0.123 1.08 0.37 0.247 0.253 0.403 0.497 0.47 0.73v0l8.45 25.75 8.45-25.75c0.067-0.233 0.227-0.477 0.48-0.73 0.247-0.247 0.603-0.37 1.07-0.37v0h4.4c0.267 0 0.51 0.1 0.73 0.3 0.213 0.2 0.32 0.45 0.32 0.75v0c0 0.133-0.033 0.283-0.1 0.45v0l-10.7 32.1c-0.133 0.4-0.35 0.733-0.65 1-0.3 0.267-0.717 0.4-1.25 0.4zM48.2 48.5v0c-3.7 0-6.633-1.067-8.8-3.2-2.167-2.133-3.333-5.167-3.5-9.1v0c-0.033-0.333-0.05-0.76-0.05-1.28 0-0.513 0.017-0.92 0.05-1.22v0c0.133-2.533 0.71-4.71 1.73-6.53 1.013-1.813 2.42-3.213 4.22-4.2 1.8-0.98 3.917-1.47 6.35-1.47v0c2.7 0 4.967 0.557 6.8 1.67 1.833 1.12 3.217 2.67 4.15 4.65 0.933 1.987 1.4 4.28 1.4 6.88v0 1.05c0 0.333-0.117 0.617-0.35 0.85-0.233 0.233-0.533 0.35-0.9 0.35v0h-16.6c0 0 0 0.05 0 0.15 0 0.1 0 0.183 0 0.25v0c0.033 1.167 0.26 2.24 0.68 3.22 0.413 0.987 1.03 1.78 1.85 2.38 0.813 0.6 1.787 0.9 2.92 0.9v0c0.933 0 1.717-0.143 2.35-0.43 0.633-0.28 1.15-0.603 1.55-0.97 0.4-0.367 0.683-0.667 0.85-0.9v0c0.3-0.4 0.543-0.643 0.73-0.73 0.18-0.08 0.453-0.12 0.82-0.12v0h4.3c0.333 0 0.61 0.1 0.83 0.3 0.213 0.2 0.303 0.45 0.27 0.75v0c-0.033 0.533-0.307 1.183-0.82 1.95-0.52 0.767-1.263 1.517-2.23 2.25-0.967 0.733-2.173 1.34-3.62 1.82-1.453 0.487-3.113 0.73-4.98 0.73zM42.7 32.6v0.15h11.05v-0.15c0-1.3-0.217-2.44-0.65-3.42-0.433-0.987-1.067-1.757-1.9-2.31-0.833-0.547-1.833-0.82-3-0.82v0c-1.167 0-2.167 0.273-3 0.82-0.833 0.553-1.457 1.323-1.87 2.31-0.42 0.98-0.63 2.12-0.63 3.42zM81.65 48h-4.05c-2 0-3.683-0.35-5.05-1.05-1.367-0.7-2.383-1.74-3.05-3.12-0.667-1.387-1-3.113-1-5.18v0-11.35h-3.95c-0.333 0-0.617-0.117-0.85-0.35-0.233-0.233-0.35-0.533-0.35-0.9v0-2.85c0-0.333 0.117-0.617 0.35-0.85 0.233-0.233 0.517-0.35 0.85-0.35v0h3.95v-8.3c0-0.333 0.11-0.617 0.33-0.85 0.213-0.233 0.503-0.35 0.87-0.35v0h4.05c0.333 0 0.617 0.117 0.85 0.35 0.233 0.233 0.35 0.517 0.35 0.85v0 8.3h6.25c0.333 0 0.617 0.117 0.85 0.35 0.233 0.233 0.35 0.517 0.35 0.85v0 2.85c0 0.367-0.117 0.667-0.35 0.9-0.233 0.233-0.517 0.35-0.85 0.35v0h-6.25v10.85c0 1.367 0.243 2.433 0.73 3.2 0.48 0.767 1.32 1.15 2.52 1.15v0h3.45c0.333 0 0.617 0.117 0.85 0.35 0.233 0.233 0.35 0.517 0.35 0.85v0 3.1c0 0.333-0.117 0.617-0.35 0.85-0.233 0.233-0.517 0.35-0.85 0.35z" data-fill-palette-color="primary" fill="#f6f6f6" opacity="1"></path></g></svg></g></svg></g></svg></g></svg></g><g transform="matrix(1,0,0,1,0,9.806757343865883)"><svg viewBox="0 0 244.43135999999998 167.33833169336125" height="167.33833169336125" width="244.43135999999998"><g><svg xmlns="http://www.w3.org/2000/svg" xmlns:xlink="http://www.w3.org/1999/xlink" xml:space="preserve" style="shape-rendering:geometricPrecision;text-rendering:geometricPrecision;image-rendering:optimizeQuality;" viewBox="6.842185999999999 20.454579500000023 86.31560200000001 59.091881" x="0" y="0" fill-rule="evenodd" clip-rule="evenodd" height="167.33833169336125" width="244.43135999999998" class="icon-icon-0" data-fill-palette-color="accent" id="icon-0"><g fill="#0ca36b" data-fill-palette-color="accent"><path class="" d="M36.206 44.061c4.023 0 4.023 5.839 0 5.84-4.024 0-4.024-5.839 0-5.84z m-24.544 14.823l-4.317 3.356 4.81 0.997-3.304 3.738 4.848 0.181-1.912 3.778 3.958-0.436-1.043 3.968 4.43-1.102-0.261 4.539 4.267-1.911 0.919 3.285 2.959-1.965 1.823 2.023 2.462-4.644c11.519 6.474 26.566 6.474 38.085 0l2.467 4.475 1.682-2.33 2.866 1.825 1.147-2.669 3.848 1.735 0.159-4.363 4.609 1.187-1.223-4.053 3.984 0.245-1.937-3.587 4.273-0.259-2.73-3.66 4.349-1.358-3.856-2.995 4.134-2.293-5.216-2.146 4.441-3.189-4.833-1.27 1.038-2.831-4.028 0.147c-0.083-0.644-0.193-1.28-0.323-1.911 2.754-2.226 5.236-7.45 6.58-16.249 0.415-5.516-2.826-8.687-8.481-8.687-6.507 0.828-11.388 2.47-14.647 4.921-10.674-5.27-23.955-5.28-34.639-0.026-3.258-2.438-8.128-4.07-14.612-4.895-5.654 0-8.895 3.171-8.48 8.687 1.331 8.718 3.78 13.928 6.504 16.188-0.138 0.651-0.252 1.307-0.336 1.972l-4.363-0.453 1.373 3.137-4.586 1.88 4.194 2.579-5.902 2.492 4.82 1.947z m38.427-35.477c-15.399 0.093-30.049 9.625-32.232 26.561l-2.649-0.792 2.486 2.606-5.164 0.3 7.109 3.261-8.258 1.426 7.767 1.069-7.681 3.381 7.757-0.517-6.323 4.531 8.412-2.087-5.983 5.315 5.749-2.066-3.93 5.692 5.094-2.711-1.388 5.587 4.927-2.966-0.563 3.978 2.653-2.852 0.723 2.817 1.657-4.198 0.103 0.058c-1.038-6.98 1.318-14.03 5.74-18.815-3.39-0.057-6.121-2.724-6.121-6.004 0-3.315 2.79-6.005 6.232-6.005 4.068 0 7.044 3.702 6.036 7.496l0.016-0.055c4.866-2.317 10.439-2.45 15.407-0.34-0.709-3.7 2.244-7.101 6.128-7.101 3.442 0 6.232 2.689 6.232 6.005 0 3.071-2.394 5.604-5.482 5.961 3.718 4.003 6.025 9.563 6.025 15.712 0 1.084-0.007 2.15-0.093 3.192l1.616 4.094 0.716-2.856 2.66 2.891-0.563-3.978 4.927 2.966-1.387-5.587 5.094 2.711-3.931-5.692 5.75 2.066-5.984-5.315 8.412 2.087-6.323-4.531 7.757 0.517-7.681-3.381 7.767-1.069-8.258-1.426 7.109-3.261-5.164-0.3 2.486-2.606-2.649 0.792c-2.127-16.506-16.189-26.66-32.74-26.561z m-17.603 49.588c10.812 5.989 24.903 5.989 35.715 0 0.243-1.397 0.309-2.87 0.309-4.34 0-6.859-3.136-12.911-7.911-16.517-0.338-0.195-0.653-0.419-0.945-0.669l0.005 0.004c-11.975-7.898-27.492 1.554-27.491 17.181 0 1.491 0.067 2.942 0.318 4.341z m37.239-46.532c6.765 3.9 11.799 9.786 13.924 16.661 2.895-3.158 4.703-10.433 5.121-14.212 0.295-4.325-2.115-6.359-6.306-6.399-4.012 0.52-9.087 1.574-12.739 3.95z m-52.665 16.588c2.144-6.861 7.184-12.73 13.949-16.615-3.648-2.356-8.701-3.405-12.698-3.923-4.191 0.04-6.601 2.074-6.306 6.399 0.416 3.75 2.199 10.943 5.055 14.139z m22.876 8.74c0.076-0.054 0.15-0.111 0.223-0.169-0.073 0.058-0.148 0.115-0.223 0.169z m0.69-0.578c0.554-0.536 1.003-1.175 1.315-1.884-0.312 0.709-0.762 1.346-1.315 1.884z m1.328-1.913c0.074-0.17 0.141-0.344 0.198-0.521-0.057 0.177-0.123 0.352-0.198 0.521z m15.849-0.661c0.025 0.085 0.052 0.168 0.081 0.251-0.03-0.083-0.057-0.165-0.081-0.251z m0.139 0.413c0.067 0.176 0.143 0.347 0.227 0.516-0.084-0.169-0.159-0.34-0.227-0.516z m5.851-4.991c4.024 0 4.024 5.839 0 5.84-4.023 0-4.023-5.839 0-5.84z m0-2.056c2.874 0 5.203 2.228 5.203 4.976 0 2.747-2.329 4.976-5.203 4.976-2.872 0-5.202-2.229-5.201-4.976 0-2.748 2.329-4.976 5.201-4.976z m-5.244 22.381c-5.374 3.583-3.55 3.778-8.544-0.085-5.035 3.894-3.189 3.656-8.648 0.016-0.674-0.45 0.154-1.638 0.76-1.233 3.878 2.585 3.4 2.857 7.082 0.01l0-4.461c-1.8-0.544-4.978-2.565-4.978-5.701 0-2.93 11.557-2.93 11.557 0 0 3.516-3.48 5.306-5.126 5.742l0 4.297c3.708 2.868 3.2 2.808 7.101 0.207 0.811-0.541 1.619 0.66 0.796 1.208z m-22.343-22.381c2.872 0 5.202 2.228 5.202 4.976 0 2.747-2.329 4.976-5.202 4.976-2.874 0-5.203-2.229-5.203-4.976 0-2.748 2.329-4.976 5.203-4.976z" fill="#0ca36b" data-fill-palette-color="accent"></path></g></svg></g></svg></g></svg></g></svg><rect width="395.5199999999999" height="111.92668111900501" fill="none" stroke="none" visibility="hidden"></rect></g></svg></g></svg>