<svg xmlns="http://www.w3.org/2000/svg" version="1.1" xmlns:xlink="http://www.w3.org/1999/xlink" xmlns:svgjs="http://svgjs.dev/svgjs" width="1000" height="255" viewBox="0 0 1000 255"><g transform="matrix(1,0,0,1,-0.6056586882693296,0.16339347524017)"><svg viewBox="0 0 396 101" data-background-color="#fdfcfc" preserveAspectRatio="xMidYMid meet" height="255" width="1000" xmlns="http://www.w3.org/2000/svg" xmlns:xlink="http://www.w3.org/1999/xlink"><defs></defs><g id="tight-bounds" transform="matrix(1,0,0,1,0.24015915944539756,-0.06471663136963457)"><svg viewBox="0 0 395.52 101.12936566275984" height="101.12936566275984" width="395.52"><g><svg viewBox="0 0 654.4652635523316 167.33833169336125" height="101.12936566275984" width="395.52"><g transform="matrix(1,0,0,1,258.9452635523316,17.066057038390483)"><svg viewBox="0 0 395.52 133.2062176165803" height="133.2062176165803" width="395.52"><g><svg viewBox="0 0 395.52 133.2062176165803" height="133.2062176165803" width="395.52"><g><svg viewBox="0 0 395.52 133.2062176165803" height="133.2062176165803" width="395.52"><g transform="matrix(1,0,0,1,0,0)"><svg width="395.52" viewBox="1.4000000000000017 -35.5 232.85000000000002 74.5" height="133.2062176165803" data-palette-color="#ffffff"><svg></svg><svg></svg><g class="undefined-text-0" data-fill-palette-color="primary" id="text-0"><path d="M17.4 0.5v0c-3.1 0-5.723-0.543-7.87-1.63-2.153-1.08-3.797-2.63-4.93-4.65-1.133-2.013-1.767-4.437-1.9-7.27v0c-0.033-1.367-0.05-2.833-0.05-4.4 0-1.567 0.017-3.067 0.05-4.5v0c0.133-2.8 0.777-5.217 1.93-7.25 1.147-2.033 2.797-3.593 4.95-4.68 2.147-1.08 4.753-1.62 7.82-1.62v0c2.267 0 4.3 0.3 6.1 0.9 1.8 0.6 3.333 1.423 4.6 2.47 1.267 1.053 2.25 2.28 2.95 3.68 0.7 1.4 1.067 2.917 1.1 4.55v0c0.033 0.3-0.057 0.55-0.27 0.75-0.22 0.2-0.48 0.3-0.78 0.3v0h-4.75c-0.367 0-0.667-0.093-0.9-0.28-0.233-0.18-0.4-0.487-0.5-0.92v0c-0.533-2.2-1.45-3.7-2.75-4.5-1.3-0.8-2.917-1.2-4.85-1.2v0c-2.233 0-4.017 0.623-5.35 1.87-1.333 1.253-2.05 3.313-2.15 6.18v0c-0.1 2.733-0.1 5.533 0 8.4v0c0.1 2.867 0.817 4.923 2.15 6.17 1.333 1.253 3.117 1.88 5.35 1.88v0c1.933 0 3.56-0.41 4.88-1.23 1.313-0.813 2.22-2.303 2.72-4.47v0c0.1-0.467 0.267-0.783 0.5-0.95 0.233-0.167 0.533-0.25 0.9-0.25v0h4.75c0.3 0 0.56 0.1 0.78 0.3 0.213 0.2 0.303 0.45 0.27 0.75v0c-0.033 1.633-0.4 3.15-1.1 4.55-0.7 1.4-1.683 2.623-2.95 3.67-1.267 1.053-2.8 1.88-4.6 2.48-1.8 0.6-3.833 0.9-6.1 0.9zM43.85 0h-4.55c-0.333 0-0.617-0.11-0.85-0.33-0.233-0.213-0.35-0.503-0.35-0.87v0-32.55c0-0.367 0.117-0.667 0.35-0.9 0.233-0.233 0.517-0.35 0.85-0.35v0h4.55c0.367 0 0.66 0.117 0.88 0.35 0.213 0.233 0.32 0.533 0.32 0.9v0 12.9h14.75v-12.9c0-0.367 0.117-0.667 0.35-0.9 0.233-0.233 0.517-0.35 0.85-0.35v0h4.5c0.367 0 0.667 0.117 0.9 0.35 0.233 0.233 0.35 0.533 0.35 0.9v0 32.55c0 0.333-0.117 0.617-0.35 0.85-0.233 0.233-0.533 0.35-0.9 0.35v0h-4.5c-0.333 0-0.617-0.117-0.85-0.35-0.233-0.233-0.35-0.517-0.35-0.85v0-13.4h-14.75v13.4c0 0.333-0.107 0.617-0.32 0.85-0.22 0.233-0.513 0.35-0.88 0.35zM88 0.5v0c-2.967 0-5.517-0.493-7.65-1.48-2.133-0.98-3.8-2.497-5-4.55-1.2-2.047-1.85-4.603-1.95-7.67v0c-0.033-1.433-0.05-2.85-0.05-4.25 0-1.4 0.017-2.833 0.05-4.3v0c0.1-3.033 0.767-5.567 2-7.6 1.233-2.033 2.927-3.567 5.08-4.6 2.147-1.033 4.653-1.55 7.52-1.55v0c2.867 0 5.383 0.517 7.55 1.55 2.167 1.033 3.867 2.567 5.1 4.6 1.233 2.033 1.9 4.567 2 7.6v0c0.067 1.467 0.1 2.9 0.1 4.3 0 1.4-0.033 2.817-0.1 4.25v0c-0.1 3.067-0.75 5.623-1.95 7.67-1.2 2.053-2.873 3.57-5.02 4.55-2.153 0.987-4.713 1.48-7.68 1.48zM88-5.25v0c2.167 0 3.933-0.643 5.3-1.93 1.367-1.28 2.1-3.37 2.2-6.27v0c0.067-1.467 0.1-2.827 0.1-4.08 0-1.247-0.033-2.587-0.1-4.02v0c-0.067-1.933-0.423-3.51-1.07-4.73-0.653-1.213-1.53-2.097-2.63-2.65-1.1-0.547-2.367-0.82-3.8-0.82v0c-1.4 0-2.65 0.273-3.75 0.82-1.1 0.553-1.973 1.437-2.62 2.65-0.653 1.22-1.013 2.797-1.08 4.73v0c-0.033 1.433-0.05 2.773-0.05 4.02 0 1.253 0.017 2.613 0.05 4.08v0c0.1 2.9 0.833 4.99 2.2 6.27 1.367 1.287 3.117 1.93 5.25 1.93zM115.25 0h-4.75c-0.333 0-0.617-0.117-0.85-0.35-0.233-0.233-0.35-0.517-0.35-0.85v0-32.55c0-0.367 0.117-0.667 0.35-0.9 0.233-0.233 0.517-0.35 0.85-0.35v0h13.4c2.6 0 4.867 0.41 6.8 1.23 1.933 0.813 3.433 2.043 4.5 3.69 1.067 1.653 1.6 3.713 1.6 6.18v0c0 2.5-0.533 4.557-1.6 6.17-1.067 1.62-2.567 2.83-4.5 3.63-1.933 0.8-4.2 1.2-6.8 1.2v0h-7.45v11.7c0 0.333-0.107 0.617-0.32 0.85-0.22 0.233-0.513 0.35-0.88 0.35zM116.35-29.45v11h7.3c1.933 0 3.417-0.46 4.45-1.38 1.033-0.913 1.55-2.27 1.55-4.07v0c0-1.667-0.483-3.01-1.45-4.03-0.967-1.013-2.483-1.52-4.55-1.52v0zM148.2 0h-4.75c-0.333 0-0.617-0.117-0.85-0.35-0.233-0.233-0.35-0.517-0.35-0.85v0-32.55c0-0.367 0.117-0.667 0.35-0.9 0.233-0.233 0.517-0.35 0.85-0.35v0h13.4c2.6 0 4.867 0.41 6.8 1.23 1.933 0.813 3.433 2.043 4.5 3.69 1.067 1.653 1.6 3.713 1.6 6.18v0c0 2.5-0.533 4.557-1.6 6.17-1.067 1.62-2.567 2.83-4.5 3.63-1.933 0.8-4.2 1.2-6.8 1.2v0h-7.45v11.7c0 0.333-0.107 0.617-0.32 0.85-0.22 0.233-0.513 0.35-0.88 0.35zM149.3-29.45v11h7.3c1.933 0 3.417-0.46 4.45-1.38 1.033-0.913 1.55-2.27 1.55-4.07v0c0-1.667-0.483-3.01-1.45-4.03-0.967-1.013-2.483-1.52-4.55-1.52v0zM198.8 0h-22.4c-0.333 0-0.617-0.117-0.85-0.35-0.233-0.233-0.35-0.517-0.35-0.85v0-32.55c0-0.367 0.117-0.667 0.35-0.9 0.233-0.233 0.517-0.35 0.85-0.35v0h22c0.367 0 0.667 0.117 0.9 0.35 0.233 0.233 0.35 0.533 0.35 0.9v0 3.3c0 0.333-0.117 0.617-0.35 0.85-0.233 0.233-0.533 0.35-0.9 0.35v0h-16.45v8.85h15.35c0.367 0 0.667 0.107 0.9 0.32 0.233 0.22 0.35 0.513 0.35 0.88v0 3.1c0 0.367-0.117 0.657-0.35 0.87-0.233 0.22-0.533 0.33-0.9 0.33v0h-15.35v9.15h16.85c0.367 0 0.667 0.117 0.9 0.35 0.233 0.233 0.35 0.533 0.35 0.9v0 3.3c0 0.333-0.117 0.617-0.35 0.85-0.233 0.233-0.533 0.35-0.9 0.35zM212.05 0h-4.55c-0.333 0-0.617-0.117-0.85-0.35-0.233-0.233-0.35-0.517-0.35-0.85v0-32.55c0-0.367 0.117-0.667 0.35-0.9 0.233-0.233 0.517-0.35 0.85-0.35v0h12.95c4.033 0 7.217 0.933 9.55 2.8 2.333 1.867 3.5 4.583 3.5 8.15v0c0 2.467-0.607 4.517-1.82 6.15-1.22 1.633-2.847 2.817-4.88 3.55v0l7.3 12.75c0.1 0.2 0.15 0.383 0.15 0.55v0c0 0.3-0.107 0.55-0.32 0.75-0.22 0.2-0.463 0.3-0.73 0.3v0h-4.55c-0.567 0-1-0.15-1.3-0.45-0.3-0.3-0.533-0.6-0.7-0.9v0l-6.45-11.85h-6.95v12c0 0.333-0.107 0.617-0.32 0.85-0.22 0.233-0.513 0.35-0.88 0.35zM213.25-29.45v10.6h7.05c2.033 0 3.55-0.46 4.55-1.38 1-0.913 1.5-2.203 1.5-3.87v0c0-1.667-0.49-2.977-1.47-3.93-0.987-0.947-2.513-1.42-4.58-1.42v0z" data-fill-palette-color="primary" fill="#ffffff" opacity="1"></path><path d="M19.6 39h-5.5c-0.533 0-0.95-0.133-1.25-0.4-0.3-0.267-0.517-0.6-0.65-1v0l-10.7-32.1c-0.067-0.167-0.1-0.317-0.1-0.45v0c0-0.3 0.1-0.55 0.3-0.75 0.2-0.2 0.45-0.3 0.75-0.3v0h4.4c0.467 0 0.827 0.123 1.08 0.37 0.247 0.253 0.403 0.497 0.47 0.73v0l8.45 25.75 8.45-25.75c0.067-0.233 0.227-0.477 0.48-0.73 0.247-0.247 0.603-0.37 1.07-0.37v0h4.4c0.267 0 0.51 0.1 0.73 0.3 0.213 0.2 0.32 0.45 0.32 0.75v0c0 0.133-0.033 0.283-0.1 0.45v0l-10.7 32.1c-0.133 0.4-0.35 0.733-0.65 1-0.3 0.267-0.717 0.4-1.25 0.4zM61.2 39h-22.4c-0.333 0-0.617-0.117-0.85-0.35-0.233-0.233-0.35-0.517-0.35-0.85v0-32.55c0-0.367 0.117-0.667 0.35-0.9 0.233-0.233 0.517-0.35 0.85-0.35v0h22c0.367 0 0.667 0.117 0.9 0.35 0.233 0.233 0.35 0.533 0.35 0.9v0 3.3c0 0.333-0.117 0.617-0.35 0.85-0.233 0.233-0.533 0.35-0.9 0.35v0h-16.45v8.85h15.35c0.367 0 0.667 0.107 0.9 0.32 0.233 0.22 0.35 0.513 0.35 0.88v0 3.1c0 0.367-0.117 0.657-0.35 0.87-0.233 0.22-0.533 0.33-0.9 0.33v0h-15.35v9.15h16.85c0.367 0 0.667 0.117 0.9 0.35 0.233 0.233 0.35 0.533 0.35 0.9v0 3.3c0 0.333-0.117 0.617-0.35 0.85-0.233 0.233-0.533 0.35-0.9 0.35zM82.2 39h-4.6c-0.333 0-0.617-0.117-0.85-0.35-0.233-0.233-0.35-0.517-0.35-0.85v0-27.65h-9.25c-0.333 0-0.617-0.117-0.85-0.35-0.233-0.233-0.35-0.517-0.35-0.85v0-3.7c0-0.367 0.117-0.667 0.35-0.9 0.233-0.233 0.517-0.35 0.85-0.35v0h25.5c0.367 0 0.667 0.117 0.9 0.35 0.233 0.233 0.35 0.533 0.35 0.9v0 3.7c0 0.333-0.117 0.617-0.35 0.85-0.233 0.233-0.533 0.35-0.9 0.35v0h-9.2v27.65c0 0.333-0.117 0.617-0.35 0.85-0.233 0.233-0.533 0.35-0.9 0.35z" data-fill-palette-color="primary" fill="#ffffff" opacity="1"></path></g></svg></g></svg></g></svg></g></svg></g><g><svg viewBox="0 0 244.43135999999998 167.33833169336125" height="167.33833169336125" width="244.43135999999998"><g><svg xmlns="http://www.w3.org/2000/svg" xmlns:xlink="http://www.w3.org/1999/xlink" xml:space="preserve" style="shape-rendering:geometricPrecision;text-rendering:geometricPrecision;image-rendering:optimizeQuality;" viewBox="6.842185999999999 20.454579500000023 86.31560200000001 59.091881" x="0" y="0" fill-rule="evenodd" clip-rule="evenodd" height="167.33833169336125" width="244.43135999999998" class="icon-icon-0" data-fill-palette-color="accent" id="icon-0"><g fill="#0ca36b" data-fill-palette-color="accent"><path class="" d="M36.206 44.061c4.023 0 4.023 5.839 0 5.84-4.024 0-4.024-5.839 0-5.84z m-24.544 14.823l-4.317 3.356 4.81 0.997-3.304 3.738 4.848 0.181-1.912 3.778 3.958-0.436-1.043 3.968 4.43-1.102-0.261 4.539 4.267-1.911 0.919 3.285 2.959-1.965 1.823 2.023 2.462-4.644c11.519 6.474 26.566 6.474 38.085 0l2.467 4.475 1.682-2.33 2.866 1.825 1.147-2.669 3.848 1.735 0.159-4.363 4.609 1.187-1.223-4.053 3.984 0.245-1.937-3.587 4.273-0.259-2.73-3.66 4.349-1.358-3.856-2.995 4.134-2.293-5.216-2.146 4.441-3.189-4.833-1.27 1.038-2.831-4.028 0.147c-0.083-0.644-0.193-1.28-0.323-1.911 2.754-2.226 5.236-7.45 6.58-16.249 0.415-5.516-2.826-8.687-8.481-8.687-6.507 0.828-11.388 2.47-14.647 4.921-10.674-5.27-23.955-5.28-34.639-0.026-3.258-2.438-8.128-4.07-14.612-4.895-5.654 0-8.895 3.171-8.48 8.687 1.331 8.718 3.78 13.928 6.504 16.188-0.138 0.651-0.252 1.307-0.336 1.972l-4.363-0.453 1.373 3.137-4.586 1.88 4.194 2.579-5.902 2.492 4.82 1.947z m38.427-35.477c-15.399 0.093-30.049 9.625-32.232 26.561l-2.649-0.792 2.486 2.606-5.164 0.3 7.109 3.261-8.258 1.426 7.767 1.069-7.681 3.381 7.757-0.517-6.323 4.531 8.412-2.087-5.983 5.315 5.749-2.066-3.93 5.692 5.094-2.711-1.388 5.587 4.927-2.966-0.563 3.978 2.653-2.852 0.723 2.817 1.657-4.198 0.103 0.058c-1.038-6.98 1.318-14.03 5.74-18.815-3.39-0.057-6.121-2.724-6.121-6.004 0-3.315 2.79-6.005 6.232-6.005 4.068 0 7.044 3.702 6.036 7.496l0.016-0.055c4.866-2.317 10.439-2.45 15.407-0.34-0.709-3.7 2.244-7.101 6.128-7.101 3.442 0 6.232 2.689 6.232 6.005 0 3.071-2.394 5.604-5.482 5.961 3.718 4.003 6.025 9.563 6.025 15.712 0 1.084-0.007 2.15-0.093 3.192l1.616 4.094 0.716-2.856 2.66 2.891-0.563-3.978 4.927 2.966-1.387-5.587 5.094 2.711-3.931-5.692 5.75 2.066-5.984-5.315 8.412 2.087-6.323-4.531 7.757 0.517-7.681-3.381 7.767-1.069-8.258-1.426 7.109-3.261-5.164-0.3 2.486-2.606-2.649 0.792c-2.127-16.506-16.189-26.66-32.74-26.561z m-17.603 49.588c10.812 5.989 24.903 5.989 35.715 0 0.243-1.397 0.309-2.87 0.309-4.34 0-6.859-3.136-12.911-7.911-16.517-0.338-0.195-0.653-0.419-0.945-0.669l0.005 0.004c-11.975-7.898-27.492 1.554-27.491 17.181 0 1.491 0.067 2.942 0.318 4.341z m37.239-46.532c6.765 3.9 11.799 9.786 13.924 16.661 2.895-3.158 4.703-10.433 5.121-14.212 0.295-4.325-2.115-6.359-6.306-6.399-4.012 0.52-9.087 1.574-12.739 3.95z m-52.665 16.588c2.144-6.861 7.184-12.73 13.949-16.615-3.648-2.356-8.701-3.405-12.698-3.923-4.191 0.04-6.601 2.074-6.306 6.399 0.416 3.75 2.199 10.943 5.055 14.139z m22.876 8.74c0.076-0.054 0.15-0.111 0.223-0.169-0.073 0.058-0.148 0.115-0.223 0.169z m0.69-0.578c0.554-0.536 1.003-1.175 1.315-1.884-0.312 0.709-0.762 1.346-1.315 1.884z m1.328-1.913c0.074-0.17 0.141-0.344 0.198-0.521-0.057 0.177-0.123 0.352-0.198 0.521z m15.849-0.661c0.025 0.085 0.052 0.168 0.081 0.251-0.03-0.083-0.057-0.165-0.081-0.251z m0.139 0.413c0.067 0.176 0.143 0.347 0.227 0.516-0.084-0.169-0.159-0.34-0.227-0.516z m5.851-4.991c4.024 0 4.024 5.839 0 5.84-4.023 0-4.023-5.839 0-5.84z m0-2.056c2.874 0 5.203 2.228 5.203 4.976 0 2.747-2.329 4.976-5.203 4.976-2.872 0-5.202-2.229-5.201-4.976 0-2.748 2.329-4.976 5.201-4.976z m-5.244 22.381c-5.374 3.583-3.55 3.778-8.544-0.085-5.035 3.894-3.189 3.656-8.648 0.016-0.674-0.45 0.154-1.638 0.76-1.233 3.878 2.585 3.4 2.857 7.082 0.01l0-4.461c-1.8-0.544-4.978-2.565-4.978-5.701 0-2.93 11.557-2.93 11.557 0 0 3.516-3.48 5.306-5.126 5.742l0 4.297c3.708 2.868 3.2 2.808 7.101 0.207 0.811-0.541 1.619 0.66 0.796 1.208z m-22.343-22.381c2.872 0 5.202 2.228 5.202 4.976 0 2.747-2.329 4.976-5.202 4.976-2.874 0-5.203-2.229-5.203-4.976 0-2.748 2.329-4.976 5.203-4.976z" fill="#0ca36b" data-fill-palette-color="accent"></path></g></svg></g></svg></g></svg></g></svg><rect width="395.52" height="101.12936566275984" fill="none" stroke="none" visibility="hidden"></rect></g></svg></g></svg>